<svg width="66" height="66" viewBox="0 0 66 66" fill="none" xmlns="http://www.w3.org/2000/svg">
<circle cx="33.2373" cy="32.8672" r="32.75" fill="#00D008"/>
<path fill-rule="evenodd" clip-rule="evenodd" d="M19.3847 18.2069C17.9658 18.4839 16.5619 19.8753 16.1722 21.3907C15.9997 22.0615 16.0009 43.699 16.1735 44.4403C16.527 45.9591 17.7324 47.1623 19.2205 47.4818C19.9846 47.6459 46.4898 47.6459 47.254 47.4818C48.742 47.1623 49.9474 45.9591 50.3009 44.4403C50.4735 43.699 50.4747 22.0615 50.3022 21.3907C49.9035 19.8402 48.501 18.4763 47.0212 18.1997C46.4986 18.102 19.8862 18.109 19.3847 18.2069ZM46.8129 20.8619C47.5449 21.0339 47.7328 21.3731 47.7723 22.5933C47.8061 23.6369 47.7613 23.7364 47.3164 23.6072C47.1482 23.5583 42.0235 23.5304 33.2372 23.5304C24.4509 23.5304 19.3262 23.5583 19.158 23.6072C18.7131 23.7364 18.6683 23.6369 18.7021 22.5933C18.741 21.3934 18.935 21.0307 19.6264 20.8654C19.9955 20.7772 46.4374 20.7737 46.8129 20.8619ZM47.1645 26.3328C48.0102 26.7648 48.0829 29.1498 47.2444 28.9537C46.6698 28.8194 19.8047 28.8194 19.2301 28.9537C18.3915 29.1498 18.4642 26.7648 19.3099 26.3328C19.7258 26.1202 46.7486 26.1202 47.1645 26.3328ZM47.1645 31.663C47.5921 31.8814 47.7196 32.1924 47.767 33.1329C47.8261 34.3049 48.2159 34.1905 44.1589 34.1919C39.328 34.1935 38.3758 34.5253 37.3719 36.5569C35.3652 40.6182 31.1092 40.6182 29.1025 36.5569C28.1008 34.5297 27.136 34.1935 22.3155 34.1919C18.2585 34.1905 18.6483 34.3049 18.7074 33.1329C18.7548 32.1924 18.8823 31.8814 19.3099 31.663C19.7258 31.4504 46.7486 31.4504 47.1645 31.663Z" fill="white"/>
</svg>
