<svg width="113" height="51" viewBox="0 0 113 51" fill="none" xmlns="http://www.w3.org/2000/svg">
<rect x="78.0956" y="11.4281" width="33.4604" height="17.1165" rx="2.66658" fill="black" stroke="black" stroke-width="1.38838"/>
<path d="M80.9482 25.2856H82.2762C82.3699 25.2856 82.4324 25.2232 82.4324 25.1294V16.8801H82.4636L87.6819 25.1763C87.7288 25.2388 87.7913 25.2856 87.8694 25.2856H89.3068C89.4005 25.2856 89.463 25.2232 89.463 25.1294V14.5054C89.463 14.4116 89.4005 14.3491 89.3068 14.3491H87.9788C87.885 14.3491 87.8225 14.4116 87.8225 14.5054V22.739H87.7913L82.573 14.4585C82.5418 14.396 82.4636 14.3491 82.3855 14.3491H80.9482C80.8544 14.3491 80.7919 14.4116 80.7919 14.5054V25.1294C80.7919 25.2232 80.8544 25.2856 80.9482 25.2856ZM90.8698 14.5054V25.1294C90.8698 25.2232 90.9322 25.2856 91.026 25.2856H92.354C92.4477 25.2856 92.5102 25.2232 92.5102 25.1294V20.4736H97.6973C97.791 20.4736 97.8535 20.4111 97.8535 20.3173V19.3018C97.8535 19.2081 97.791 19.1456 97.6973 19.1456H92.5102V15.6771H98.166C98.2597 15.6771 98.3222 15.6146 98.3222 15.5209V14.5054C98.3222 14.4116 98.2597 14.3491 98.166 14.3491H91.026C90.9322 14.3491 90.8698 14.4116 90.8698 14.5054ZM99.6538 14.5054V15.5521C99.6538 15.6459 99.7163 15.7084 99.81 15.7084H103.372V25.1294C103.372 25.2232 103.435 25.2856 103.528 25.2856H104.856C104.95 25.2856 105.013 25.2232 105.013 25.1294V15.7084H108.559C108.653 15.7084 108.715 15.6459 108.715 15.5521V14.5054C108.715 14.4116 108.653 14.3491 108.559 14.3491H99.81C99.7163 14.3491 99.6538 14.4116 99.6538 14.5054Z" fill="white"/>
<path d="M2.52614 13.5362V41.3998C2.52614 41.6457 2.69004 41.8096 2.93589 41.8096H6.41885C6.6647 41.8096 6.8286 41.6457 6.8286 41.3998V29.189H20.4326C20.6785 29.189 20.8424 29.0251 20.8424 28.7792V26.1158C20.8424 25.8699 20.6785 25.706 20.4326 25.706H6.8286V16.6094H21.6619C21.9077 16.6094 22.0716 16.4455 22.0716 16.1996V13.5362C22.0716 13.2903 21.9077 13.1264 21.6619 13.1264H2.93589C2.69004 13.1264 2.52614 13.2903 2.52614 13.5362ZM24.1297 21.7314V41.3998C24.1297 41.6457 24.2936 41.8096 24.5395 41.8096H27.8175C28.0634 41.8096 28.2273 41.6457 28.2273 41.3998V31.9754C28.2273 27.2631 30.0712 24.1899 34.4556 24.1899H34.9474C35.1932 24.1899 35.3571 24.026 35.3571 23.7802V21.3216C35.3571 21.0758 35.1932 20.9119 34.9474 20.9119H34.4556C30.5629 20.9119 29.1288 23.0016 28.3093 25.5421H28.2273V21.7314C28.2273 21.4855 28.0634 21.3216 27.8175 21.3216H24.5395C24.2936 21.3216 24.1297 21.4855 24.1297 21.7314ZM44.8107 42.2193C49.6459 42.2193 52.6781 39.5149 53.7025 35.8681C53.7844 35.5812 53.6205 35.4173 53.3337 35.4173H50.0556C49.8507 35.4173 49.6868 35.5403 49.6049 35.7861C48.9493 37.8759 47.4741 38.9413 44.8927 38.9413C41.6146 38.9413 39.8116 36.5647 39.6477 32.3441H53.5795C53.8254 32.3441 53.9483 32.1802 53.9483 31.8934C53.9483 25.5421 50.4244 20.9119 44.8107 20.9119C38.9921 20.9119 35.3453 25.5421 35.3453 31.5656C35.3453 38.2447 39.0331 42.2193 44.8107 42.2193ZM39.6887 30.2953C40.0575 26.3207 41.9424 24.1899 44.8107 24.1899C47.9658 24.1899 49.5229 26.8124 49.5229 30.2953H39.6887ZM65.0586 42.2193C69.8937 42.2193 72.9259 39.5149 73.9503 35.8681C74.0323 35.5812 73.8684 35.4173 73.5815 35.4173H70.3035C70.0986 35.4173 69.9347 35.5403 69.8527 35.7861C69.1971 37.8759 67.722 38.9413 65.1405 38.9413C61.8624 38.9413 60.0595 36.5647 59.8956 32.3441H73.8274C74.0732 32.3441 74.1962 32.1802 74.1962 31.8934C74.1962 25.5421 70.6722 20.9119 65.0586 20.9119C59.24 20.9119 55.5931 25.5421 55.5931 31.5656C55.5931 38.2447 59.281 42.2193 65.0586 42.2193ZM59.9366 30.2953C60.3053 26.3207 62.1902 24.1899 65.0586 24.1899C68.2137 24.1899 69.7708 26.8124 69.7708 30.2953H59.9366Z" fill="black"/>
</svg>
