<svg width="60" height="61" viewBox="0 0 60 61" fill="none" xmlns="http://www.w3.org/2000/svg">
<circle cx="30" cy="30.0537" r="30" fill="#BBBBBB"/>
<path d="M43.5 30.0537L25.5 30.0537M43.5 21.0537L25.5 21.0537M43.5 39.0537L25.5 39.0537M19.5 30.0537C19.5 30.8821 18.8284 31.5537 18 31.5537C17.1716 31.5537 16.5 30.8821 16.5 30.0537C16.5 29.2253 17.1716 28.5537 18 28.5537C18.8284 28.5537 19.5 29.2253 19.5 30.0537ZM19.5 21.0537C19.5 21.8821 18.8284 22.5537 18 22.5537C17.1716 22.5537 16.5 21.8821 16.5 21.0537C16.5 20.2253 17.1716 19.5537 18 19.5537C18.8284 19.5537 19.5 20.2253 19.5 21.0537ZM19.5 39.0537C19.5 39.8821 18.8284 40.5537 18 40.5537C17.1716 40.5537 16.5 39.8821 16.5 39.0537C16.5 38.2253 17.1716 37.5537 18 37.5537C18.8284 37.5537 19.5 38.2253 19.5 39.0537Z" stroke="white" stroke-width="1.71395" stroke-linecap="round" stroke-linejoin="round"/>
</svg>
