<svg width="21" height="20" viewBox="0 0 21 20" fill="none" xmlns="http://www.w3.org/2000/svg">
<line x1="20.0813" y1="19.9702" x2="20.0813" y2="0.445343" stroke="black" stroke-width="0.443747"/>
<g clip-path="url(#clip0_1543_21521)">
<path d="M8.076 16.9573L1.28948 10.1708C1.2345 10.1159 1.2345 10.0267 1.28948 9.97176L8.19181 3.06942C8.21929 3.04194 8.25692 3.02704 8.29577 3.02826L11.0126 3.1137C11.1358 3.11757 11.1949 3.26675 11.1077 3.35393L6.07489 8.38672C5.98621 8.4754 6.04902 8.62702 6.17442 8.62702L20.2536 8.62702C20.3306 8.62702 20.3933 8.68889 20.3943 8.76588L20.4295 11.3725C20.4306 11.451 20.3673 11.5152 20.2888 11.5152L6.17442 11.5152C6.04902 11.5152 5.98621 11.6668 6.07489 11.7555L11.0605 16.741C11.1488 16.8294 11.0868 16.9805 10.9618 16.9813L8.1764 16.9986C8.13877 16.9988 8.10261 16.984 8.076 16.9573Z" fill="black"/>
</g>
<line x1="0.999806" y1="19.9702" x2="0.999805" y2="0.445343" stroke="black" stroke-width="0.443747"/>
<defs>
<clipPath id="clip0_1543_21521">
<rect width="19.0811" height="19.5249" fill="white" transform="translate(1.22168 0.445312)"/>
</clipPath>
</defs>
</svg>
