<svg width="24" height="25" viewBox="0 0 24 25" fill="none" xmlns="http://www.w3.org/2000/svg">
<path fill-rule="evenodd" clip-rule="evenodd" d="M15.4755 4.13273C13.3123 4.57108 11.7911 6.68076 12.1829 8.69889C12.2429 9.00798 12.2256 9.01812 11.7191 8.97004C9.03369 8.71508 6.59268 7.61894 4.63871 5.79055C4.38064 5.54907 4.12457 5.33501 4.06961 5.31487C2.57275 4.76608 2.88619 8.52699 4.44834 9.85881C4.82128 10.1767 4.77449 10.2053 4.11599 10.062C3.61801 9.95359 3.53072 9.95165 3.34136 10.0448C3.07619 10.1752 2.92001 10.5634 3.04226 10.7881C3.06091 10.8223 3.10517 10.9309 3.1407 11.0295C3.54347 12.1476 4.53771 13.1067 5.72593 13.5233C6.22599 13.6987 6.18942 13.7508 5.51743 13.8207C3.70017 14.0098 5.76368 16.2149 8.07011 16.5485C8.35665 16.59 8.27322 16.6968 7.67194 17.0581C6.43635 17.8006 4.78668 18.2857 3.49732 18.2857C2.11067 18.2857 3.83815 19.2904 6.04822 19.7692C13.4656 21.3764 20.4358 15.9737 20.4362 8.61694L20.4363 8.06772L20.5401 7.97194C20.5972 7.91926 20.7669 7.77941 20.9171 7.66116C21.7838 6.97921 22.1861 6.43082 21.9178 6.29706C21.7859 6.2313 21.768 6.23338 21.1725 6.38381C20.3817 6.58358 20.1775 6.56778 20.5013 6.33192C21.0371 5.94174 21.6625 5.17086 21.6625 4.90071C21.6625 4.61591 21.4852 4.61078 20.8234 4.87641C20.5766 4.97553 20.192 5.10553 19.9688 5.1653C19.3019 5.34393 19.363 5.34748 19.093 5.11453C18.0869 4.24654 16.7306 3.87839 15.4755 4.13273Z" fill="black"/>
</svg>
