<svg width="60" height="61" viewBox="0 0 60 61" fill="none" xmlns="http://www.w3.org/2000/svg">
<circle cx="30" cy="30.8672" r="30" fill="#1C9CEA"/>
<path fill-rule="evenodd" clip-rule="evenodd" d="M34.933 17.5005C31.3468 18.2402 28.8246 21.8003 29.4743 25.2059C29.5738 25.7275 29.5451 25.7446 28.7054 25.6635C24.2532 25.2333 20.2063 23.3835 16.9668 20.2981C16.539 19.8906 16.1144 19.5294 16.0233 19.4954C13.5417 18.5693 14.0613 24.9159 16.6512 27.1633C17.2695 27.6998 17.1919 27.748 16.1002 27.5061C15.2746 27.3232 15.1299 27.32 14.8159 27.4772C14.3763 27.6973 14.1174 28.3523 14.3201 28.7315C14.351 28.7892 14.4244 28.9725 14.4833 29.1388C15.151 31.0257 16.7994 32.6441 18.7693 33.3472C19.5983 33.643 19.5377 33.731 18.4236 33.849C15.4108 34.1681 18.8319 37.8892 22.6557 38.4522C23.1308 38.5221 22.9924 38.7023 21.9956 39.3121C19.9471 40.5651 17.2121 41.3837 15.0745 41.3837C12.7756 41.3837 15.6396 43.079 19.3036 43.8871C31.6008 46.5991 43.1568 37.4821 43.1575 25.0676L43.1575 24.1408L43.3296 23.9792C43.4243 23.8903 43.7056 23.6543 43.9547 23.4548C45.3916 22.304 46.0585 21.3786 45.6137 21.1528C45.3951 21.0419 45.3654 21.0454 44.3781 21.2992C43.067 21.6363 42.7284 21.6097 43.2653 21.2117C44.1536 20.5532 45.1905 19.2524 45.1905 18.7965C45.1905 18.3159 44.8965 18.3072 43.7994 18.7555C43.3901 18.9228 42.7524 19.1421 42.3824 19.243C41.2768 19.5444 41.3781 19.5504 40.9306 19.1573C39.2625 17.6926 37.0138 17.0713 34.933 17.5005Z" fill="white"/>
</svg>
