<svg width="60" height="61" viewBox="0 0 60 61" fill="none" xmlns="http://www.w3.org/2000/svg">
<circle cx="30" cy="30.0537" r="30" fill="#BBBBBB"/>
<path fill-rule="evenodd" clip-rule="evenodd" d="M34.933 16.6871C31.3468 17.4268 28.8246 20.9869 29.4743 24.3924C29.5738 24.914 29.5451 24.9312 28.7054 24.85C24.2532 24.4198 20.2063 22.57 16.9668 19.4846C16.539 19.0771 16.1144 18.7159 16.0233 18.6819C13.5417 17.7558 14.0613 24.1024 16.6512 26.3498C17.2695 26.8863 17.1919 26.9345 16.1002 26.6927C15.2746 26.5097 15.1299 26.5065 14.8159 26.6637C14.3763 26.8838 14.1174 27.5388 14.3201 27.918C14.351 27.9757 14.4244 28.159 14.4833 28.3253C15.151 30.2122 16.7994 31.8306 18.7693 32.5337C19.5983 32.8296 19.5377 32.9175 18.4236 33.0355C15.4108 33.3547 18.8319 37.0757 22.6557 37.6387C23.1308 37.7086 22.9924 37.8888 21.9956 38.4986C19.9471 39.7516 17.2121 40.5702 15.0745 40.5702C12.7756 40.5702 15.6396 42.2656 19.3036 43.0737C31.6008 45.7857 43.1568 36.6686 43.1575 24.2542L43.1575 23.3274L43.3296 23.1657C43.4243 23.0768 43.7056 22.8408 43.9547 22.6413C45.3916 21.4905 46.0585 20.5651 45.6137 20.3394C45.3951 20.2284 45.3654 20.2319 44.3781 20.4858C43.067 20.8229 42.7284 20.7962 43.2653 20.3982C44.1536 19.7398 45.1905 18.4389 45.1905 17.983C45.1905 17.5024 44.8965 17.4938 43.7994 17.942C43.3901 18.1093 42.7524 18.3287 42.3824 18.4295C41.2768 18.731 41.3781 18.7369 40.9306 18.3438C39.2625 16.8791 37.0138 16.2579 34.933 16.6871Z" fill="white"/>
</svg>
