<svg width="32" height="23" viewBox="0 0 32 23" fill="none" xmlns="http://www.w3.org/2000/svg">
<path d="M20.4768 0.253141L31.0801 10.8565C31.3778 11.1542 31.3778 11.6368 31.0801 11.9345L20.2701 22.7445C20.1214 22.8932 19.918 22.9739 19.7079 22.9674L16.7039 22.8758C16.0362 22.8554 15.7158 22.0472 16.1881 21.5749L22.6852 15.0778C23.1656 14.5974 22.8249 13.7759 22.1454 13.7765L0.830664 13.7965C0.413133 13.7969 0.0729882 13.4613 0.0677378 13.0438L0.0272447 9.82465C0.0219053 9.40022 0.364282 9.05318 0.788746 9.05278L22.1547 9.03281C22.8335 9.03218 23.173 8.21149 22.693 7.73153L16.3147 1.35314C15.8363 0.874785 16.1718 0.0566966 16.8482 0.0518753L19.9323 0.0298946C20.1364 0.0284412 20.3325 0.108855 20.4768 0.253141Z" fill="white"/>
</svg>
